Coordinates
version=1
nRows=5
nColumns=40
inDegrees=yes

Units are S.I. units (second, meters, Newtons, ...)
Angles are in degrees.

endheader
time	pelvis_tilt	pelvis_list	pelvis_rotation	pelvis_tx	pelvis_ty	pelvis_tz	hip_flexion_r	hip_adduction_r	hip_rotation_r	knee_angle_r	knee_angle_r_beta	ankle_angle_r	subtalar_angle_r	mtp_angle_r	hip_flexion_l	hip_adduction_l	hip_rotation_l	knee_angle_l	knee_angle_l_beta	ankle_angle_l	subtalar_angle_l	mtp_angle_l	lumbar_extension	lumbar_bending	lumbar_rotation	arm_flex_r	arm_add_r	arm_rot_r	elbow_flex_r	pro_sup_r	wrist_flex_r	wrist_dev_r	arm_flex_l	arm_add_l	arm_rot_l	elbow_flex_l	pro_sup_l	wrist_flex_l	wrist_dev_l
     25.11750000	     -2.90842238	     -4.70269882	      5.76944361	      1.09411178	      0.93377624	      0.48387789	      5.68777510	      4.58829328	    -19.33072806	     10.49965825	     10.49965825	      9.44769300	     -3.63218487	     -7.02942406	     34.86562267	    -10.00542871	      1.44003552	     45.63232531	     45.63232531	      9.33328102	    -18.46412799	     14.96538960	     -9.98546811	      5.85430833	      2.95220492	     29.84505564	    -16.68160021	     -8.79429501	     53.05228847	     45.68222916	      0.00000000	      0.00000000	      4.52461449	     -5.45912691	     -1.86526243	     21.89489449	     46.47957822	      0.00000000	      0.00000000
     25.12900000	     -3.05019393	     -4.69365543	      5.89006435	      1.09282939	      0.93331622	      0.48407785	      5.00959839	      4.69370177	    -19.65413955	      9.98456428	      9.98456428	      9.77691693	     -2.88790457	     -7.12392298	     35.01309163	     -9.69815511	      0.97647165	     41.24912945	     41.24912945	      8.41949561	    -18.11828470	     13.50032020	     -9.97564612	      5.84504000	      3.12893695	     31.38984074	    -17.08585548	     -8.25752318	     56.50527103	     45.54119064	      0.00000000	      0.00000000	      3.75365875	     -5.25073883	     -1.66045085	     19.44811506	     46.44708448	      0.00000000	      0.00000000
     25.14050000	     -3.36094674	     -4.71120438	      5.95517047	      1.09148661	      0.93249980	      0.48422026	      4.59948485	      4.81906527	    -19.63631838	      9.60142192	      9.60142192	     10.05458571	     -2.77056308	     -7.16703376	     35.34463937	     -9.35777993	      0.55462351	     37.01718602	     37.01718602	      8.23894988	    -17.16128443	     13.95630765	     -9.73796430	      5.83391596	      3.35577995	     33.55909824	    -17.29646686	     -8.37879086	     57.88399161	     45.50864824	      0.00000000	      0.00000000	      2.42377477	     -5.10613821	     -1.64066926	     18.77906511	     46.41704525	      0.00000000	      0.00000000
     25.15200000	     -3.50464894	     -4.62081911	      6.00491712	      1.09055543	      0.93200843	      0.48430764	      3.83867975	      4.87550566	    -19.69093203	      8.96600553	      8.96600553	     10.30260344	     -2.28996509	     -7.16607714	     35.21760155	     -8.89608820	      0.14154034	     32.57201876	     32.57201876	      7.94300000	    -15.86658307	     14.05374005	     -9.68145697	      5.66855551	      3.01788138	     35.64112182	    -16.86391566	     -8.30696121	     60.01556569	     45.44123802	      0.00000000	      0.00000000	      0.90627489	     -5.20086982	     -1.59831293	     17.91814391	     46.38071224	      0.00000000	      0.00000000
     25.16350000	     -3.60820515	     -4.76516210	      6.11714082	      1.08990121	      0.93119665	      0.48412968	      2.99196963	      5.13378304	    -20.38631041	      8.29639394	      8.29639394	     10.79740841	     -0.79371727	     -6.95874921	     34.99999181	     -8.64338473	     -0.19698737	     28.09448993	     28.09448993	      6.15250542	    -14.45039914	     10.12228713	     -9.72059692	      5.91020124	      3.13002850	     36.67196694	    -17.26403297	     -7.78039190	     64.70339059	     45.27551139	      0.00000000	      0.00000000	     -0.66656195	     -5.21098014	     -1.22951263	     17.69529965	     46.26416347	      0.00000000	      0.00000000
